# File produced by Open Asset Import Library (http://www.assimp.sf.net)
# (assimp v3.1.24787357)

mtllib middlePart.mtl

# 136 vertex positions
v  -4 0.458163 -3.34387
v  -4 -1.10753 -3.34387
v  -4 -1.10753 3.34387
v  -4 0.458163 3.34387
v  3.34387 0.458163 4
v  3.34387 -1.10753 4
v  4 -1.10753 3.34387
v  4 0.458163 3.34387
v  4 0.458163 -3.34387
v  4 -1.10753 -3.34387
v  3.34387 -1.10753 -4
v  3.34387 0.458163 -4
v  -3.34387 0.458163 -4
v  -3.34387 -1.10753 -4
v  -3.34387 -1.10753 4
v  -3.34387 0.458163 4
v  -3.8 -1.10753 -3.17668
v  -3.8 -1.10753 3.17668
v  3.17668 -1.10753 3.8
v  3.8 -1.10753 3.17668
v  3.8 -1.10753 -3.17668
v  3.17668 -1.10753 -3.8
v  -3.17668 -1.10753 -3.8
v  -3.17668 -1.10753 3.8
v  4 3.33827 3.34387
v  5.3 3.33827 2.6751
v  5.3 3.33827 -2.6751
v  4 3.33827 -3.34387
v  -4 3.33827 -3.34387
v  -5.3 3.33827 -2.6751
v  -5.3 3.33827 2.6751
v  -4 3.33827 3.34387
v  3.34387 3.33827 -4
v  2.6751 3.33827 -5.3
v  -2.6751 3.33827 -5.3
v  -3.34387 3.33827 -4
v  -3.34387 3.33827 4
v  -2.6751 3.33827 5.3
v  2.6751 3.33827 5.3
v  3.34387 3.33827 4
v  3.34387 2.29769 4
v  4 2.29769 3.34387
v  4 2.29769 -3.34387
v  3.34387 2.29769 -4
v  -3.34387 2.29769 -4
v  -4 2.29769 -3.34387
v  -4 2.29769 3.34387
v  -3.34387 2.29769 4
v  5.3 2.29769 2.6751
v  5.3 2.29769 -2.6751
v  -5.3 2.29769 -2.6751
v  -5.3 2.29769 2.6751
v  2.6751 2.29769 -5.3
v  -2.6751 2.29769 -5.3
v  -2.6751 2.29769 5.3
v  2.6751 2.29769 5.3
v  3.17668 2.29769 3.8
v  3.8 2.29769 3.17668
v  3.8 2.29769 -3.17668
v  3.17668 2.29769 -3.8
v  -3.17668 2.29769 -3.8
v  -3.8 2.29769 -3.17668
v  -3.8 2.29769 3.17668
v  -3.17668 2.29769 3.8
v  5.035 2.29769 2.54134
v  5.035 2.29769 -2.54134
v  -5.035 2.29769 -2.54134
v  -5.035 2.29769 2.54134
v  2.54134 2.29769 -5.035
v  -2.54134 2.29769 -5.035
v  -2.54134 2.29769 5.035
v  2.54134 2.29769 5.035
v  -5.035 1.49874 2.54134
v  -5.035 1.49874 -2.54134
v  3.17668 1.49874 3.8
v  3.8 1.49874 3.17668
v  3.8 1.49874 -3.17668
v  3.17668 1.49874 -3.8
v  -3.17668 1.49874 -3.8
v  -3.8 1.49874 -3.17668
v  -3.8 1.49874 3.17668
v  -3.17668 1.49874 3.8
v  -2.54134 1.49874 -5.035
v  2.54134 1.49874 -5.035
v  2.54134 1.49874 5.035
v  -2.54134 1.49874 5.035
v  5.035 1.49874 -2.54134
v  5.035 1.49874 2.54134
v  5.3 0.458163 -2.6751
v  5.3 0.458163 2.6751
v  -5.3 0.458163 2.6751
v  -5.3 0.458163 -2.6751
v  -2.6751 0.458163 -5.3
v  2.6751 0.458163 -5.3
v  2.6751 0.458163 5.3
v  -2.6751 0.458163 5.3
v  4 1.49874 3.34387
v  3.34387 1.49874 4
v  3.34387 1.49874 -4
v  4 1.49874 -3.34387
v  -4 1.49874 -3.34387
v  -3.34387 1.49874 -4
v  -3.34387 1.49874 4
v  -4 1.49874 3.34387
v  5.3 1.49874 -2.6751
v  5.3 1.49874 2.6751
v  -5.3 1.49874 2.6751
v  -5.3 1.49874 -2.6751
v  -2.6751 1.49874 -5.3
v  2.6751 1.49874 -5.3
v  2.6751 1.49874 5.3
v  -2.6751 1.49874 5.3
v  -3.8 3.5615 3.17668
v  -3.17668 3.5615 3.8
v  -3.17668 4.26186 3.8
v  -3.8 4.26186 3.17668
v  -3.8 4.26186 -3.17668
v  -3.8 3.5615 -3.17668
v  3.8 4.26186 3.17668
v  3.17668 4.26186 3.8
v  3.17668 3.5615 3.8
v  3.8 3.5615 3.17668
v  3.17668 4.26186 -3.8
v  3.8 4.26186 -3.17668
v  3.8 3.5615 -3.17668
v  3.17668 3.5615 -3.8
v  -3.17668 4.26186 -3.8
v  -3.17668 3.5615 -3.8
v  -4 3.5615 3.34387
v  -4 3.5615 -3.34387
v  4 3.5615 3.34387
v  3.34387 3.5615 4
v  3.34387 3.5615 -4
v  4 3.5615 -3.34387
v  -3.34387 3.5615 -4
v  -3.34387 3.5615 4

# 284 UV coordinates
vt 0.843621 0.189771 0
vt 0.843621 0.214439 0
vt 0.975333 0.214439 0
vt 0.975333 0.189771 0
vt 0.525374 0.189771 0
vt 0.525374 0.214439 0
vt 0.543649 0.214439 0
vt 0.543649 0.189771 0
vt 0.67536 0.189771 0
vt 0.67536 0.214439 0
vt 0.693635 0.214439 0
vt 0.693635 0.189771 0
vt 0.825346 0.189771 0
vt 0.825346 0.214439 0
vt 0.375388 0.189771 0
vt 0.375388 0.214439 0
vt 0.393663 0.214439 0
vt 0.393663 0.189771 0
vt 0.975331 0.045078 0
vt 0.971392 0.048371 0
vt 0.971392 0.173498 0
vt 0.975331 0.176791 0
vt 0.8307 0.189715 0
vt 0.833993 0.185776 0
vt 0.821717 0.1735 0
vt 0.817778 0.176793 0
vt 0.817778 0.045079 0
vt 0.821717 0.048372 0
vt 0.833993 0.036096 0
vt 0.830701 0.032157 0
vt 0.962409 0.032157 0
vt 0.959117 0.036095 0
vt 0.959117 0.185776 0
vt 0.96241 0.189715 0
vt 0.271255 0.832178 0
vt 0.285969 0.803576 0
vt 0.403683 0.803576 0
vt 0.418397 0.832178 0
vt 0.418397 0.774815 0
vt 0.403683 0.803418 0
vt 0.285969 0.803418 0
vt 0.271255 0.774815 0
vt 0.418397 0.746055 0
vt 0.403683 0.774657 0
vt 0.285969 0.774657 0
vt 0.271255 0.746055 0
vt 0.271255 0.860939 0
vt 0.285969 0.832336 0
vt 0.403683 0.832336 0
vt 0.418397 0.860939 0
vt 0.532166 0.940546 0
vt 0.532166 0.92223 0
vt 0.552582 0.92223 0
vt 0.552582 0.940546 0
vt 0.734626 0.940546 0
vt 0.734626 0.92223 0
vt 0.755042 0.92223 0
vt 0.755042 0.940546 0
vt 0.127245 0.940546 0
vt 0.127245 0.92223 0
vt 0.14766 0.92223 0
vt 0.14766 0.940546 0
vt 0.329706 0.940546 0
vt 0.329706 0.92223 0
vt 0.350121 0.92223 0
vt 0.350121 0.940546 0
vt 0.584747 0.940546 0
vt 0.584747 0.92223 0
vt 0.702461 0.92223 0
vt 0.702461 0.940546 0
vt 0.179826 0.940546 0
vt 0.179826 0.92223 0
vt 0.29754 0.92223 0
vt 0.29754 0.940546 0
vt 0.787207 0.940546 0
vt 0.787207 0.92223 0
vt 0.904921 0.92223 0
vt 0.904921 0.940546 0
vt 0.095079 0.940546 0
vt 0.095079 0.92223 0
vt 0.382287 0.940546 0
vt 0.382287 0.92223 0
vt 0.500001 0.92223 0
vt 0.500001 0.940546 0
vt 0.123682 0.702858 0
vt 0.128082 0.699179 0
vt 0.141796 0.712894 0
vt 0.138118 0.717294 0
vt 0.285258 0.717295 0
vt 0.28158 0.712894 0
vt 0.295294 0.69918 0
vt 0.299694 0.702859 0
vt 0.2997 0.555714 0
vt 0.2953 0.559393 0
vt 0.281585 0.545679 0
vt 0.285264 0.541278 0
vt 0.138118 0.541278 0
vt 0.141797 0.545679 0
vt 0.128083 0.559393 0
vt 0.123682 0.555715 0
vt 0.152832 0.745897 0
vt 0.155775 0.740066 0
vt 0.267601 0.740066 0
vt 0.270544 0.745897 0
vt 0.270549 0.512675 0
vt 0.267606 0.518506 0
vt 0.155776 0.518506 0
vt 0.152833 0.512675 0
vt 0.328296 0.688145 0
vt 0.322466 0.685202 0
vt 0.322465 0.573377 0
vt 0.328296 0.570434 0
vt 0.095079 0.570429 0
vt 0.10091 0.573372 0
vt 0.10091 0.685201 0
vt 0.095079 0.688144 0
vt 0.604643 0.494855 0
vt 0.604643 0.476577 0
vt 0.749994 0.476576 0
vt 0.749994 0.494854 0
vt 0.289724 0.476577 0
vt 0.314933 0.476577 0
vt 0.314933 0.494855 0
vt 0.289724 0.494855 0
vt 0.03973 0.476577 0
vt 0.064939 0.476577 0
vt 0.064939 0.494855 0
vt 0.03973 0.494855 0
vt 0.789711 0.476576 0
vt 0.814919 0.476576 0
vt 0.814919 0.494854 0
vt 0.789711 0.494854 0
vt 0.564926 0.494855 0
vt 0.539718 0.494855 0
vt 0.539718 0.476577 0
vt 0.564926 0.476577 0
vt 0.854636 0.494854 0
vt 0.854636 0.476576 0
vt 0.999986 0.476576 0
vt 0.999986 0.494854 0
vt 0.35465 0.494855 0
vt 0.35465 0.476577 0
vt 0.500001 0.476577 0
vt 0.500001 0.494855 0
vt 0.104656 0.494855 0
vt 0.104656 0.476577 0
vt 0.250007 0.476577 0
vt 0.250007 0.494855 0
vt 1.4e-05 0.494855 0
vt 1.4e-05 0.476577 0
vt 0.418401 0.317438 0
vt 0.403686 0.34604 0
vt 0.285973 0.34604 0
vt 0.271258 0.317438 0
vt 0.271258 0.374804 0
vt 0.285973 0.346201 0
vt 0.403686 0.346201 0
vt 0.418401 0.374804 0
vt 0.271258 0.288514 0
vt 0.285973 0.259911 0
vt 0.403686 0.259911 0
vt 0.418401 0.288514 0
vt 0.418401 0.288675 0
vt 0.403686 0.317277 0
vt 0.285973 0.317277 0
vt 0.271258 0.288675 0
vt 0.297541 0.454406 0
vt 0.297541 0.43609 0
vt 0.317957 0.43609 0
vt 0.317957 0.454406 0
vt 0.095081 0.454406 0
vt 0.095081 0.43609 0
vt 0.115496 0.43609 0
vt 0.115496 0.454406 0
vt 0.702461 0.454405 0
vt 0.702461 0.436089 0
vt 0.722876 0.436089 0
vt 0.722876 0.454405 0
vt 0.500001 0.454405 0
vt 0.500001 0.43609 0
vt 0.520416 0.43609 0
vt 0.520417 0.454405 0
vt 0.147662 0.454406 0
vt 0.147662 0.43609 0
vt 0.265376 0.43609 0
vt 0.265376 0.454406 0
vt 0.552582 0.454405 0
vt 0.552582 0.43609 0
vt 0.670295 0.436089 0
vt 0.670295 0.454405 0
vt 0.755041 0.454405 0
vt 0.755041 0.436089 0
vt 0.872754 0.436089 0
vt 0.872754 0.454405 0
vt 0.904919 0.436089 0
vt 0.904919 0.454405 0
vt 0.350122 0.454406 0
vt 0.350122 0.43609 0
vt 0.467836 0.43609 0
vt 0.467836 0.454405 0
vt 0.229361 0.021425 0
vt 0.228851 0.027138 0
vt 0.209456 0.027138 0
vt 0.208946 0.021425 0
vt 0.333407 0.145888 0
vt 0.327694 0.145377 0
vt 0.327694 0.125982 0
vt 0.333407 0.125472 0
vt 0.208946 0.24993 0
vt 0.209456 0.244217 0
vt 0.228851 0.244217 0
vt 0.229362 0.24993 0
vt 0.104901 0.12547 0
vt 0.110614 0.12598 0
vt 0.110614 0.145375 0
vt 0.104901 0.145885 0
vt 0.343228 0.094841 0
vt 0.337024 0.096883 0
vt 0.257949 0.017809 0
vt 0.259991 0.011605 0
vt 0.095081 0.176514 0
vt 0.101284 0.174472 0
vt 0.180358 0.253546 0
vt 0.178317 0.25975 0
vt 0.259991 0.25975 0
vt 0.257949 0.253546 0
vt 0.337022 0.174474 0
vt 0.343226 0.176515 0
vt 0.178316 0.011605 0
vt 0.180358 0.017809 0
vt 0.101284 0.096882 0
vt 0.095081 0.09484 0
vt 0.831434 0.692074 0
vt 0.814073 0.692073 0
vt 0.814073 0.703108 0
vt 0.831434 0.703108 0
vt 0.95656 0.703108 0
vt 0.95656 0.692074 0
vt 0.671586 0.703108 0
vt 0.688947 0.703108 0
vt 0.688947 0.692073 0
vt 0.671586 0.692073 0
vt 0.529098 0.703108 0
vt 0.546459 0.703108 0
vt 0.546459 0.692073 0
vt 0.529098 0.692073 0
vt 0.973921 0.703108 0
vt 0.973921 0.692074 0
vt 0.40397 0.692073 0
vt 0.40397 0.703108 0
vt 0.823944 0.703167 0
vt 0.823944 0.706684 0
vt 0.955647 0.706684 0
vt 0.955647 0.703167 0
vt 0.655686 0.703167 0
vt 0.655686 0.706684 0
vt 0.673961 0.706684 0
vt 0.673961 0.703167 0
vt 0.505696 0.703166 0
vt 0.505696 0.706683 0
vt 0.523972 0.706683 0
vt 0.523972 0.703166 0
vt 0.973921 0.706684 0
vt 0.973921 0.703167 0
vt 0.805669 0.703167 0
vt 0.805669 0.706684 0
vt 0.373977 0.703165 0
vt 0.373977 0.706682 0
vt 0.973921 0.547379 0
vt 0.969982 0.550671 0
vt 0.969981 0.675799 0
vt 0.97392 0.679092 0
vt 0.816366 0.547377 0
vt 0.820305 0.55067 0
vt 0.832582 0.538394 0
vt 0.829289 0.534455 0
vt 0.829287 0.692014 0
vt 0.832579 0.688075 0
vt 0.820304 0.675799 0
vt 0.816365 0.679092 0
vt 0.957704 0.688075 0
vt 0.960997 0.692014 0
vt 0.960999 0.534457 0
vt 0.957706 0.538395 0

# 18 vertex normals
vn -1 0 0
vn 0.7071 0 0.7071
vn 0.7071 0 -0.7071
vn -0.7071 0 -0.7071
vn -0.7071 0 0.7071
vn 0 0 -1
vn 0 0 1
vn 1 0 0
vn 0 -1 0
vn 0 1 0
vn 0.4575 0 -0.8892
vn 0.4575 0 0.8892
vn -0.4575 0 0.8892
vn -0.4575 0 -0.8892
vn -0.8892 0 -0.4575
vn 0.8892 0 -0.4575
vn -0.8892 0 0.4575
vn 0.8892 0 0.4575

# Mesh 'Top_core.001_Cube.000_Top_core.001_Cube.000' with 256 faces
g Top_core.001_Cube.000_Top_core.001_Cube.000
usemtl None
f  1/1/1 2/2/1 3/3/1
f  3/3/1 4/4/1 1/1/1
f  5/5/2 6/6/2 7/7/2
f  7/7/2 8/8/2 5/5/2
f  9/9/3 10/10/3 11/11/3
f  11/11/3 12/12/3 9/9/3
f  13/13/4 14/14/4 2/2/4
f  2/2/4 1/1/4 13/13/4
f  4/15/5 3/16/5 15/17/5
f  15/17/5 16/18/5 4/15/5
f  12/12/6 11/11/6 14/14/6
f  14/14/6 13/13/6 12/12/6
f  16/18/7 15/17/7 6/6/7
f  6/6/7 5/5/7 16/18/7
f  8/8/8 7/7/8 10/10/8
f  10/10/8 9/9/8 8/8/8
f  2/19/9 17/20/9 18/21/9
f  18/21/9 3/22/9 2/19/9
f  6/23/9 19/24/9 20/25/9
f  20/25/9 7/26/9 6/23/9
f  10/27/9 21/28/9 22/29/9
f  22/29/9 11/30/9 10/27/9
f  14/31/9 23/32/9 17/20/9
f  17/20/9 2/19/9 14/31/9
f  3/22/9 18/21/9 24/33/9
f  24/33/9 15/34/9 3/22/9
f  11/30/9 22/29/9 23/32/9
f  23/32/9 14/31/9 11/30/9
f  15/34/9 24/33/9 19/24/9
f  19/24/9 6/23/9 15/34/9
f  7/26/9 20/25/9 21/28/9
f  21/28/9 10/27/9 7/26/9
f  25/35/10 26/36/10 27/37/10
f  27/37/10 28/38/10 25/35/10
f  29/39/10 30/40/10 31/41/10
f  31/41/10 32/42/10 29/39/10
f  33/43/10 34/44/10 35/45/10
f  35/45/10 36/46/10 33/43/10
f  37/47/10 38/48/10 39/49/10
f  39/49/10 40/50/10 37/47/10
f  40/51/2 41/52/2 42/53/2
f  42/53/2 25/54/2 40/51/2
f  28/55/3 43/56/3 44/57/3
f  44/57/3 33/58/3 28/55/3
f  36/59/4 45/60/4 46/61/4
f  46/61/4 29/62/4 36/59/4
f  32/63/5 47/64/5 48/65/5
f  48/65/5 37/66/5 32/63/5
f  26/67/8 49/68/8 50/69/8
f  50/69/8 27/70/8 26/67/8
f  27/70/11 50/69/11 43/56/11
f  43/56/11 28/55/11 27/70/11
f  25/54/12 42/53/12 49/68/12
f  49/68/12 26/67/12 25/54/12
f  30/71/1 51/72/1 52/73/1
f  52/73/1 31/74/1 30/71/1
f  31/74/13 52/73/13 47/64/13
f  47/64/13 32/63/13 31/74/13
f  29/62/14 46/61/14 51/72/14
f  51/72/14 30/71/14 29/62/14
f  34/75/6 53/76/6 54/77/6
f  54/77/6 35/78/6 34/75/6
f  35/79/15 54/80/15 45/60/15
f  45/60/15 36/59/15 35/79/15
f  33/58/16 44/57/16 53/76/16
f  53/76/16 34/75/16 33/58/16
f  38/81/7 55/82/7 56/83/7
f  56/83/7 39/84/7 38/81/7
f  37/66/17 48/65/17 55/82/17
f  55/82/17 38/81/17 37/66/17
f  39/84/18 56/83/18 41/52/18
f  41/52/18 40/51/18 39/84/18
f  41/85/9 57/86/9 58/87/9
f  58/87/9 42/88/9 41/85/9
f  43/89/9 59/90/9 60/91/9
f  60/91/9 44/92/9 43/89/9
f  45/93/9 61/94/9 62/95/9
f  62/95/9 46/96/9 45/93/9
f  47/97/9 63/98/9 64/99/9
f  64/99/9 48/100/9 47/97/9
f  49/101/9 65/102/9 66/103/9
f  66/103/9 50/104/9 49/101/9
f  50/104/9 66/103/9 59/90/9
f  59/90/9 43/89/9 50/104/9
f  42/88/9 58/87/9 65/102/9
f  65/102/9 49/101/9 42/88/9
f  51/105/9 67/106/9 68/107/9
f  68/107/9 52/108/9 51/105/9
f  52/108/9 68/107/9 63/98/9
f  63/98/9 47/97/9 52/108/9
f  46/96/9 62/95/9 67/106/9
f  67/106/9 51/105/9 46/96/9
f  53/109/9 69/110/9 70/111/9
f  70/111/9 54/112/9 53/109/9
f  54/112/9 70/111/9 61/94/9
f  61/94/9 45/93/9 54/112/9
f  44/92/9 60/91/9 69/110/9
f  69/110/9 53/109/9 44/92/9
f  55/113/9 71/114/9 72/115/9
f  72/115/9 56/116/9 55/113/9
f  48/100/9 64/99/9 71/114/9
f  71/114/9 55/113/9 48/100/9
f  56/116/9 72/115/9 57/86/9
f  57/86/9 41/85/9 56/116/9
f  73/117/1 68/118/1 67/119/1
f  67/119/1 74/120/1 73/117/1
f  58/121/2 57/122/2 75/123/2
f  75/123/2 76/124/2 58/121/2
f  60/125/3 59/126/3 77/127/3
f  77/127/3 78/128/3 60/125/3
f  62/129/4 61/130/4 79/131/4
f  79/131/4 80/132/4 62/129/4
f  81/133/5 82/134/5 64/135/5
f  64/135/5 63/136/5 81/133/5
f  83/137/6 70/138/6 69/139/6
f  69/139/6 84/140/6 83/137/6
f  85/141/7 72/142/7 71/143/7
f  71/143/7 86/144/7 85/141/7
f  87/145/8 66/146/8 65/147/8
f  65/147/8 88/148/8 87/145/8
f  59/126/11 66/146/11 87/145/11
f  87/145/11 77/127/11 59/126/11
f  76/124/12 88/148/12 65/147/12
f  65/147/12 58/121/12 76/124/12
f  63/136/13 68/118/13 73/117/13
f  73/117/13 81/133/13 63/136/13
f  80/132/14 74/120/14 67/119/14
f  67/119/14 62/129/14 80/132/14
f  61/130/15 70/138/15 83/137/15
f  83/137/15 79/131/15 61/130/15
f  78/128/16 84/149/16 69/150/16
f  69/150/16 60/125/16 78/128/16
f  82/134/17 86/144/17 71/143/17
f  71/143/17 64/135/17 82/134/17
f  57/122/18 72/142/18 85/141/18
f  85/141/18 75/123/18 57/122/18
f  9/151/9 89/152/9 90/153/9
f  90/153/9 8/154/9 9/151/9
f  4/155/9 91/156/9 92/157/9
f  92/157/9 1/158/9 4/155/9
f  13/159/9 93/160/9 94/161/9
f  94/161/9 12/162/9 13/159/9
f  5/163/9 95/164/9 96/165/9
f  96/165/9 16/166/9 5/163/9
f  8/167/2 97/168/2 98/169/2
f  98/169/2 5/170/2 8/167/2
f  12/171/3 99/172/3 100/173/3
f  100/173/3 9/174/3 12/171/3
f  1/175/4 101/176/4 102/177/4
f  102/177/4 13/178/4 1/175/4
f  16/179/5 103/180/5 104/181/5
f  104/181/5 4/182/5 16/179/5
f  89/183/8 105/184/8 106/185/8
f  106/185/8 90/186/8 89/183/8
f  9/174/11 100/173/11 105/184/11
f  105/184/11 89/183/11 9/174/11
f  90/186/12 106/185/12 97/168/12
f  97/168/12 8/167/12 90/186/12
f  91/187/1 107/188/1 108/189/1
f  108/189/1 92/190/1 91/187/1
f  4/182/13 104/181/13 107/188/13
f  107/188/13 91/187/13 4/182/13
f  92/190/14 108/189/14 101/176/14
f  101/176/14 1/175/14 92/190/14
f  93/191/6 109/192/6 110/193/6
f  110/193/6 94/194/6 93/191/6
f  13/178/15 102/177/15 109/192/15
f  109/192/15 93/191/15 13/178/15
f  94/194/16 110/193/16 99/195/16
f  99/195/16 12/196/16 94/194/16
f  95/197/7 111/198/7 112/199/7
f  112/199/7 96/200/7 95/197/7
f  96/200/17 112/199/17 103/180/17
f  103/180/17 16/179/17 96/200/17
f  5/170/18 98/169/18 111/198/18
f  111/198/18 95/197/18 5/170/18
f  97/201/10 76/202/10 75/203/10
f  75/203/10 98/204/10 97/201/10
f  99/205/10 78/206/10 77/207/10
f  77/207/10 100/208/10 99/205/10
f  101/209/10 80/210/10 79/211/10
f  79/211/10 102/212/10 101/209/10
f  103/213/10 82/214/10 81/215/10
f  81/215/10 104/216/10 103/213/10
f  105/217/10 87/218/10 88/219/10
f  88/219/10 106/220/10 105/217/10
f  100/208/10 77/207/10 87/218/10
f  87/218/10 105/217/10 100/208/10
f  106/220/10 88/219/10 76/202/10
f  76/202/10 97/201/10 106/220/10
f  107/221/10 73/222/10 74/223/10
f  74/223/10 108/224/10 107/221/10
f  104/216/10 81/215/10 73/222/10
f  73/222/10 107/221/10 104/216/10
f  108/224/10 74/223/10 80/210/10
f  80/210/10 101/209/10 108/224/10
f  109/225/10 83/226/10 84/227/10
f  84/227/10 110/228/10 109/225/10
f  102/212/10 79/211/10 83/226/10
f  83/226/10 109/225/10 102/212/10
f  110/228/10 84/227/10 78/206/10
f  78/206/10 99/205/10 110/228/10
f  111/229/10 85/230/10 86/231/10
f  86/231/10 112/232/10 111/229/10
f  112/232/10 86/231/10 82/214/10
f  82/214/10 103/213/10 112/232/10
f  98/204/10 75/203/10 85/230/10
f  85/230/10 111/229/10 98/204/10
f  113/233/5 114/234/5 115/235/5
f  115/235/5 116/236/5 113/233/5
f  113/233/1 116/236/1 117/237/1
f  117/237/1 118/238/1 113/233/1
f  119/239/2 120/240/2 121/241/2
f  121/241/2 122/242/2 119/239/2
f  123/243/3 124/244/3 125/245/3
f  125/245/3 126/246/3 123/243/3
f  117/237/4 127/247/4 128/248/4
f  128/248/4 118/238/4 117/237/4
f  128/249/6 127/250/6 123/243/6
f  123/243/6 126/246/6 128/249/6
f  121/241/7 120/240/7 115/235/7
f  115/235/7 114/234/7 121/241/7
f  125/245/8 124/244/8 119/239/8
f  119/239/8 122/242/8 125/245/8
f  32/251/1 129/252/1 130/253/1
f  130/253/1 29/254/1 32/251/1
f  25/255/2 131/256/2 132/257/2
f  132/257/2 40/258/2 25/255/2
f  33/259/3 133/260/3 134/261/3
f  134/261/3 28/262/3 33/259/3
f  29/254/4 130/253/4 135/263/4
f  135/263/4 36/264/4 29/254/4
f  37/265/5 136/266/5 129/252/5
f  129/252/5 32/251/5 37/265/5
f  36/267/6 135/268/6 133/260/6
f  133/260/6 33/259/6 36/267/6
f  40/258/7 132/257/7 136/266/7
f  136/266/7 37/265/7 40/258/7
f  28/262/8 134/261/8 131/256/8
f  131/256/8 25/255/8 28/262/8
f  129/269/10 113/270/10 118/271/10
f  118/271/10 130/272/10 129/269/10
f  131/273/10 122/274/10 121/275/10
f  121/275/10 132/276/10 131/273/10
f  133/277/10 126/278/10 125/279/10
f  125/279/10 134/280/10 133/277/10
f  130/272/10 118/271/10 128/281/10
f  128/281/10 135/282/10 130/272/10
f  136/283/10 114/284/10 113/270/10
f  113/270/10 129/269/10 136/283/10
f  135/282/10 128/281/10 126/278/10
f  126/278/10 133/277/10 135/282/10
f  132/276/10 121/275/10 114/284/10
f  114/284/10 136/283/10 132/276/10
f  134/280/10 125/279/10 122/274/10
f  122/274/10 131/273/10 134/280/10

